<svg width="240" height="242" viewBox="0 0 240 242" fill="none" xmlns="http://www.w3.org/2000/svg" xmlns:xlink="http://www.w3.org/1999/xlink">
<path d="M120,0.239C141.491,0.239 162.587,6.01 181.085,16.95C199.583,27.889 214.804,43.596 225.156,62.428C235.51,81.261 240.616,102.528 239.94,124.008C239.266,145.488 232.834,166.393 221.32,184.538C209.804,202.683 193.627,217.403 174.479,227.159C155.331,236.917 133.913,241.351 112.465,240.003C91.017,238.653 70.325,231.569 52.55,219.489C34.775,207.409 20.571,190.778 11.421,171.332L65.71,145.786C70.286,155.508 77.388,163.824 86.275,169.864C95.162,175.903 105.508,179.446 116.233,180.12C126.957,180.795 137.665,178.577 147.239,173.699C156.814,168.821 164.902,161.461 170.66,152.388C176.417,143.316 179.633,132.863 179.97,122.123C180.308,111.383 177.755,100.75 172.578,91.334C167.402,81.917 159.791,74.064 150.542,68.594C141.294,63.124 130.745,60.239 120,60.239L120,0.239Z" fill="#50B4BD"/>
<path d="M11.421,171.332C2.815,153.043 -1.032,132.877 0.237,112.704C1.506,92.531 7.85,73.006 18.681,55.94C29.511,38.873 44.477,24.82 62.19,15.082C79.902,5.344 99.787,0.239 120,0.239L120,60.239C109.894,60.239 99.951,62.792 91.095,67.66C82.239,72.529 74.756,79.556 69.34,88.089C63.925,96.622 60.753,106.385 60.118,116.471C59.484,126.558 61.407,136.641 65.71,145.786L11.421,171.332Z" fill="#CBE9EB"/>
</svg>
