<svg width="606" height="266" viewBox="0 0 606 266" fill="none" xmlns="http://www.w3.org/2000/svg" xmlns:xlink="http://www.w3.org/1999/xlink">
<rect  x="2" y="4.239" width="602" height="260" fill="#000000" fill-opacity="0"/>
<rect  x="2" y="4.239" width="602" height="260" fill="#000000" fill-opacity="0"/>
<path d="M88,171.794L87.252,173.649L87.84,173.886L88.458,173.741L88,171.794ZM174,151.572L174.458,153.519L175.294,153.322L175.727,152.58L174,151.572ZM260,4.239L261.656,3.118L259.876,0.485L258.272,3.231L260,4.239ZM346,131.35L344.344,132.471L345.222,133.769L346.694,133.226L346,131.35ZM432,99.572L433.256,98.015L432.372,97.303L431.306,97.696L432,99.572ZM518,168.905L516.744,170.462L517.324,170.929L518.068,170.904L518,168.905ZM1.252,138.983L87.252,173.649L88.748,169.939L2.748,135.273L1.252,138.983ZM88.458,173.741L174.458,153.519L173.542,149.625L87.542,169.847L88.458,173.741ZM175.727,152.58L261.728,5.247L258.272,3.231L172.273,150.564L175.727,152.58ZM258.344,5.36L344.344,132.471L347.656,130.229L261.656,3.118L258.344,5.36ZM346.694,133.226L432.694,101.448L431.306,97.696L345.306,129.474L346.694,133.226ZM430.744,101.129L516.744,170.462L519.256,167.348L433.256,98.015L430.744,101.129ZM518.068,170.904L604.068,168.015L603.932,164.018L517.932,166.907L518.068,170.904Z" fill="#003972"/>
<rect  x="2" y="4.239" width="602" height="260" fill="#000000" fill-opacity="0"/>
<path d="M88,105.35L89.485,104.01L87.913,102.268L86.442,104.096L88,105.35ZM174,200.683L172.515,202.023L173.883,203.539L175.37,202.14L174,200.683ZM260,119.794L261.344,118.313L259.976,117.072L258.63,118.337L260,119.794ZM346,197.794L344.656,199.276L345.256,199.82L346.068,199.793L346,197.794ZM432,194.905L432.068,196.904L433.202,196.866L433.752,195.871L432,194.905ZM518,38.905L519.868,38.192L518.33,34.163L516.248,37.94L518,38.905ZM3.558,213.492L89.558,106.604L86.442,104.096L0.442,210.985L3.558,213.492ZM86.515,106.689L172.515,202.023L175.485,199.344L89.485,104.01L86.515,106.689ZM175.37,202.14L261.37,121.251L258.63,118.337L172.63,199.226L175.37,202.14ZM258.656,121.276L344.656,199.276L347.344,196.313L261.344,118.313L258.656,121.276ZM346.068,199.793L432.068,196.904L431.932,192.907L345.932,195.795L346.068,199.793ZM433.752,195.871L519.752,39.871L516.248,37.94L430.248,193.94L433.752,195.871ZM516.132,39.619L602.132,264.951L605.868,263.525L519.868,38.192L516.132,39.619Z" fill="#90C7FF"/>
</svg>
