<svg width="376" height="378" viewBox="0 0 376 378" fill="none" xmlns="http://www.w3.org/2000/svg" xmlns:xlink="http://www.w3.org/1999/xlink">
<g opacity="0.4">
<path d="M326.337,188.876C326.337,265.551 264.181,327.707 187.507,327.707L187.507,339.277C270.571,339.277 337.907,271.941 337.907,188.876L326.337,188.876ZM187.507,327.707C110.832,327.707 48.676,265.551 48.676,188.876L37.106,188.876C37.106,271.941 104.443,339.277 187.507,339.277L187.507,327.707ZM48.676,188.876C48.676,112.202 110.832,50.045 187.507,50.045L187.507,38.476C104.443,38.476 37.106,105.813 37.106,188.876L48.676,188.876ZM187.507,50.045C264.181,50.045 326.337,112.202 326.337,188.876L337.907,188.876C337.907,105.813 270.571,38.476 187.507,38.476L187.507,50.045Z" transform="rotate(0 187.507 188.876)" fill="#CFD2DA"/>
</g>
<path d="M187.506,50.045C224.327,50.045 259.639,64.672 285.675,90.708L293.855,82.527C265.65,54.322 227.395,38.476 187.506,38.476L187.506,50.045ZM285.675,90.708C311.71,116.744 326.337,152.056 326.337,188.876L337.906,188.876C337.906,148.988 322.061,110.733 293.855,82.527L285.675,90.708Z" transform="rotate(0 259.814 116.569)" fill="#CFD2DA"/>
</svg>
