<svg width="296" height="296" viewBox="0 0 296 296" fill="none" xmlns="http://www.w3.org/2000/svg" xmlns:xlink="http://www.w3.org/1999/xlink">
<path d="M23.793,202.931C16.178,185.962 11.938,167.152 11.938,147.341L0.615,147.341C0.615,168.783 5.207,189.17 13.463,207.567L23.793,202.931ZM11.938,147.341C11.938,72.301 72.775,11.464 147.815,11.464L147.815,0.141C66.521,0.141 0.615,66.047 0.615,147.341L11.938,147.341ZM147.815,11.464C222.854,11.464 283.692,72.301 283.692,147.341L295.014,147.341C295.014,66.047 229.108,0.141 147.815,0.141L147.815,11.464ZM283.692,147.341C283.692,222.381 222.854,283.219 147.815,283.219L147.815,294.541C229.108,294.541 295.014,228.635 295.014,147.341L283.692,147.341ZM147.815,283.219C115.063,283.219 85.044,271.645 61.581,252.349L54.389,261.095C79.804,281.997 112.345,294.541 147.815,294.541L147.815,283.219Z" transform="rotate(0 147.815 147.341)" fill="#CFD2DA"/>
</svg>
