<svg width="48" height="50" viewBox="0 0 48 50" fill="none" xmlns="http://www.w3.org/2000/svg" xmlns:xlink="http://www.w3.org/1999/xlink">
<path d="M27.429,25.953L20.571,25.953C19.625,25.953 18.857,26.721 18.857,27.667L18.857,43.096C18.857,44.042 19.625,44.81 20.571,44.81L27.429,44.81C28.375,44.81 29.143,44.042 29.143,43.096L29.143,27.667C29.143,26.721 28.375,25.953 27.429,25.953Z" transform="rotate(0 24 35.382)" fill="#E6AC00"/>
<path d="M12,32.81L5.143,32.81C4.197,32.81 3.429,33.578 3.429,34.525L3.429,43.096C3.429,44.042 4.197,44.81 5.143,44.81L12,44.81C12.946,44.81 13.714,44.042 13.714,43.096L13.714,34.525C13.714,33.578 12.946,32.81 12,32.81Z" transform="rotate(0 8.571 38.81)" fill="#E6AC00"/>
<path d="M42.857,19.096L36,19.096C35.054,19.096 34.286,19.864 34.286,20.81L34.286,43.096C34.286,44.042 35.054,44.81 36,44.81L42.857,44.81C43.803,44.81 44.571,44.042 44.571,43.096L44.571,20.81C44.571,19.864 43.803,19.096 42.857,19.096Z" transform="rotate(0 39.429 31.953)" fill="#E6AC00"/>
<path d="M25.212,20.308L36,9.52L36,15.667L39.429,15.667L39.429,5.382C39.429,4.435 38.661,3.667 37.714,3.667L27.429,3.667L27.429,7.096L33.576,7.096L24,16.672L18.355,11.027C17.685,10.356 16.601,10.356 15.931,11.027L7.359,19.598L9.783,22.022L17.143,14.663L22.788,20.308C23.458,20.978 24.542,20.978 25.212,20.308Z" transform="rotate(0 23.394 12.845)" fill="#E6AC00"/>
</svg>
