<svg width="240" height="242" viewBox="0 0 240 242" fill="none" xmlns="http://www.w3.org/2000/svg" xmlns:xlink="http://www.w3.org/1999/xlink">
<path d="M120,0.239C145.342,0.239 170.033,8.261 190.534,23.157C211.036,38.052 226.296,59.056 234.126,83.157L177.063,101.698C173.148,89.647 165.518,79.145 155.267,71.698C145.016,64.25 132.671,60.239 120,60.239L120,0.239Z" fill="#50B4BD"/>
<path d="M234.126,83.157C241.958,107.258 241.958,133.22 234.126,157.321C226.296,181.422 211.036,202.425 190.534,217.321C170.033,232.217 145.342,240.239 120,240.239C94.658,240.239 69.967,232.217 49.466,217.321C28.964,202.425 13.704,181.422 5.873,157.321C-1.958,133.22 -1.958,107.258 5.873,83.157C13.704,59.056 28.964,38.052 49.466,23.157C69.967,8.261 94.658,0.239 120,0.239L120,60.239C107.329,60.239 94.984,64.25 84.733,71.698C74.482,79.145 66.852,89.647 62.937,101.698C59.021,113.748 59.021,126.729 62.937,138.78C66.852,150.83 74.482,161.332 84.733,168.78C94.984,176.228 107.329,180.239 120,180.239C132.671,180.239 145.016,176.228 155.267,168.78C165.518,161.332 173.148,150.83 177.063,138.78C180.979,126.729 180.979,113.748 177.063,101.698L234.126,83.157Z" fill="#CBE9EB"/>
</svg>
