<svg width="48" height="50" viewBox="0 0 48 50" fill="none" xmlns="http://www.w3.org/2000/svg" xmlns:xlink="http://www.w3.org/1999/xlink">
<path d="M12,30.753L9.943,30.753L9.943,34.868L12,34.868L12,30.753ZM42.857,10.867L44.914,10.867L44.914,6.753L42.857,6.753L42.857,10.867ZM12,34.868C17.597,34.868 21.366,33.211 24.062,30.515C26.641,27.936 28.065,24.547 29.319,21.621C30.637,18.547 31.784,15.936 33.705,14.015C35.509,12.211 38.169,10.867 42.857,10.867L42.857,6.753C37.26,6.753 33.491,8.41 30.795,11.106C28.216,13.685 26.792,17.074 25.538,20C24.22,23.074 23.074,25.685 21.153,27.606C19.348,29.41 16.689,30.753 12,30.753L12,34.868Z" transform="rotate(0 27.429 20.81)" fill="#003972"/>
<path d="M42.857,41.725L44.914,41.725L44.914,37.61L42.857,37.61L42.857,41.725ZM5.143,39.668L3.086,39.668L3.086,41.725L5.143,41.725L5.143,39.668ZM7.2,8.81L7.2,6.753L3.086,6.753L3.086,8.81L7.2,8.81ZM42.857,37.61L5.143,37.61L5.143,41.725L42.857,41.725L42.857,37.61ZM7.2,39.668L7.2,8.81L3.086,8.81L3.086,39.668L7.2,39.668Z" transform="rotate(0 24 24.239)" fill="#003972"/>
</svg>
